<svg width="39" height="37" viewBox="0 0 39 37" fill="none" xmlns="http://www.w3.org/2000/svg">
<path fill-rule="evenodd" clip-rule="evenodd" d="M4.80875 10.7273C4.45487 10.7273 4.16795 10.4588 4.16795 10.1278C4.16795 9.79665 4.45479 9.52831 4.80875 9.52831H36.8337L33.2239 1.73509H5.22943L1.28429 10.252V13.846C1.28773 15.9115 3.08445 17.5927 5.28927 17.5927C7.46005 17.5927 9.29425 15.9511 9.29425 13.816C9.29425 13.4849 9.58117 13.2165 9.93505 13.2165C10.2889 13.2165 10.5758 13.4849 10.5758 13.816C10.5758 15.9693 12.4216 17.5927 14.5808 17.5927C16.7892 17.5927 18.5858 15.9119 18.5858 13.846C18.5858 13.5149 18.8727 13.2465 19.2266 13.2465C19.5805 13.2465 19.8674 13.5149 19.8674 13.846C19.8674 15.9119 21.664 17.5927 23.8724 17.5927C26.0807 17.5927 27.8774 15.9119 27.8774 13.846C27.8774 13.5149 28.1643 13.2465 28.5182 13.2465C28.872 13.2465 29.1589 13.5149 29.1589 13.846C29.1589 15.9119 30.9556 17.5927 33.1639 17.5927C35.3723 17.5927 37.1689 15.9119 37.1689 13.846C37.1689 13.5149 37.4558 13.2465 37.8097 13.2465C38.1636 13.2465 38.4505 13.5149 38.4505 13.846C38.4505 16.5731 36.079 18.7917 33.1639 18.7917C31.1613 18.7917 29.415 17.7443 28.5182 16.2045C26.511 19.6503 21.2333 19.6495 19.2266 16.2045C17.2183 19.6523 11.9383 19.6485 9.93368 16.2022C9.03617 17.7433 7.29008 18.7917 5.28927 18.7917C2.37885 18.7917 0.00734151 16.5734 0.00269573 13.8469C0.00269573 10.1824 -0.0142818 10.0394 0.0369757 9.92777C0.0423793 9.916 0.0485413 9.90458 0.0555615 9.88942L4.22074 0.897243C4.32223 0.678059 4.55331 0.536133 4.80867 0.536133H33.6445C33.9 0.536133 34.1309 0.677984 34.2325 0.897243C38.3575 9.80253 38.4865 9.99958 38.4533 10.164C38.4505 10.178 38.4465 10.1918 38.4437 10.2107C38.4198 10.3687 38.3328 10.507 38.1996 10.6028C38.185 10.6133 38.1769 10.623 38.1681 10.6319C38.0229 10.7791 37.6759 10.7273 4.80875 10.7273ZM36.5282 33.5074V20.8435C36.5282 20.5123 36.2413 20.244 35.8874 20.244C35.5335 20.244 35.2466 20.5124 35.2466 20.8435V33.5074C35.2466 34.4991 34.3842 35.3059 33.3242 35.3059H19.8675V25.8641C19.8675 25.533 19.5806 25.2646 19.2267 25.2646C18.8728 25.2646 18.5859 25.533 18.5859 25.8641V35.3059H13.3794V25.1897C13.3794 24.1981 14.2418 23.3912 15.3018 23.3912H23.1516C24.2115 23.3912 25.0739 24.1981 25.0739 25.1897V32.908C25.0739 33.239 25.3609 33.5074 25.7147 33.5074C26.0686 33.5074 26.3555 33.239 26.3555 32.908V25.1897C26.3555 23.5369 24.9182 22.1923 23.1516 22.1923H15.3018C13.5351 22.1923 12.0978 23.5369 12.0978 25.1897V35.3059H5.12915C4.06911 35.3059 3.20676 34.4991 3.20676 33.5074V20.8435C3.20676 20.5124 2.91984 20.244 2.56596 20.244C2.21208 20.244 1.92517 20.5124 1.92517 20.8435V33.5074C1.92517 35.1602 3.36247 36.5048 5.12915 36.5048H33.3242C35.0909 36.5048 36.5282 35.1602 36.5282 33.5074Z" fill="#007FFC"/>
</svg>
